<svg xmlns="http://www.w3.org/2000/svg" xmlns:xlink="http://www.w3.org/1999/xlink" contentStyleType="text/css" height="139px" preserveAspectRatio="none" style="width:1920px;height:139px;background:#FFFFFF;" version="1.1" viewBox="0 0 1920 139" width="1920px" zoomAndPan="magnify"><defs/><g><line style="stroke:#333333;stroke-width:0.5;stroke-dasharray:3.0,5.0;" x1="58.1218" x2="58.1218" y1="10" y2="110"/><line style="stroke:#333333;stroke-width:0.5;stroke-dasharray:3.0,5.0;" x1="108.1218" x2="108.1218" y1="10" y2="110"/><line style="stroke:#333333;stroke-width:0.5;stroke-dasharray:3.0,5.0;" x1="158.1218" x2="158.1218" y1="10" y2="110"/><line style="stroke:#333333;stroke-width:0.5;stroke-dasharray:3.0,5.0;" x1="208.1218" x2="208.1218" y1="10" y2="110"/><line style="stroke:#333333;stroke-width:0.5;stroke-dasharray:3.0,5.0;" x1="258.1218" x2="258.1218" y1="10" y2="110"/><line style="stroke:#333333;stroke-width:0.5;stroke-dasharray:3.0,5.0;" x1="308.1218" x2="308.1218" y1="10" y2="110"/><line style="stroke:#333333;stroke-width:0.5;stroke-dasharray:3.0,5.0;" x1="358.1218" x2="358.1218" y1="10" y2="110"/><line style="stroke:#333333;stroke-width:0.5;stroke-dasharray:3.0,5.0;" x1="408.1218" x2="408.1218" y1="10" y2="110"/><line style="stroke:#333333;stroke-width:0.5;stroke-dasharray:3.0,5.0;" x1="458.1218" x2="458.1218" y1="10" y2="110"/><line style="stroke:#333333;stroke-width:0.5;stroke-dasharray:3.0,5.0;" x1="508.1218" x2="508.1218" y1="10" y2="110"/><line style="stroke:#333333;stroke-width:0.5;stroke-dasharray:3.0,5.0;" x1="558.1218" x2="558.1218" y1="10" y2="110"/><line style="stroke:#333333;stroke-width:0.5;stroke-dasharray:3.0,5.0;" x1="608.1218" x2="608.1218" y1="10" y2="110"/><line style="stroke:#333333;stroke-width:0.5;stroke-dasharray:3.0,5.0;" x1="658.1218" x2="658.1218" y1="10" y2="110"/><line style="stroke:#333333;stroke-width:0.5;stroke-dasharray:3.0,5.0;" x1="708.1218" x2="708.1218" y1="10" y2="110"/><line style="stroke:#333333;stroke-width:0.5;stroke-dasharray:3.0,5.0;" x1="758.1218" x2="758.1218" y1="10" y2="110"/><line style="stroke:#333333;stroke-width:0.5;stroke-dasharray:3.0,5.0;" x1="808.1218" x2="808.1218" y1="10" y2="110"/><line style="stroke:#333333;stroke-width:0.5;stroke-dasharray:3.0,5.0;" x1="858.1218" x2="858.1218" y1="10" y2="110"/><line style="stroke:#333333;stroke-width:0.5;stroke-dasharray:3.0,5.0;" x1="908.1218" x2="908.1218" y1="10" y2="110"/><line style="stroke:#333333;stroke-width:0.5;stroke-dasharray:3.0,5.0;" x1="958.1218" x2="958.1218" y1="10" y2="110"/><line style="stroke:#333333;stroke-width:0.5;stroke-dasharray:3.0,5.0;" x1="1008.1218" x2="1008.1218" y1="10" y2="110"/><line style="stroke:#333333;stroke-width:0.5;stroke-dasharray:3.0,5.0;" x1="1058.1218" x2="1058.1218" y1="10" y2="110"/><line style="stroke:#333333;stroke-width:0.5;stroke-dasharray:3.0,5.0;" x1="1108.1218" x2="1108.1218" y1="10" y2="110"/><line style="stroke:#333333;stroke-width:0.5;stroke-dasharray:3.0,5.0;" x1="1158.1218" x2="1158.1218" y1="10" y2="110"/><line style="stroke:#333333;stroke-width:0.5;stroke-dasharray:3.0,5.0;" x1="1208.1218" x2="1208.1218" y1="10" y2="110"/><line style="stroke:#333333;stroke-width:0.5;stroke-dasharray:3.0,5.0;" x1="1258.1218" x2="1258.1218" y1="10" y2="110"/><line style="stroke:#333333;stroke-width:0.5;stroke-dasharray:3.0,5.0;" x1="1308.1218" x2="1308.1218" y1="10" y2="110"/><line style="stroke:#333333;stroke-width:0.5;stroke-dasharray:3.0,5.0;" x1="1358.1218" x2="1358.1218" y1="10" y2="110"/><line style="stroke:#333333;stroke-width:0.5;stroke-dasharray:3.0,5.0;" x1="1408.1218" x2="1408.1218" y1="10" y2="110"/><line style="stroke:#333333;stroke-width:0.5;stroke-dasharray:3.0,5.0;" x1="1458.1218" x2="1458.1218" y1="10" y2="110"/><line style="stroke:#333333;stroke-width:0.5;stroke-dasharray:3.0,5.0;" x1="1508.1218" x2="1508.1218" y1="10" y2="110"/><line style="stroke:#333333;stroke-width:0.5;stroke-dasharray:3.0,5.0;" x1="1558.1218" x2="1558.1218" y1="10" y2="110"/><line style="stroke:#333333;stroke-width:0.5;stroke-dasharray:3.0,5.0;" x1="1608.1218" x2="1608.1218" y1="10" y2="110"/><line style="stroke:#333333;stroke-width:0.5;stroke-dasharray:3.0,5.0;" x1="1658.1218" x2="1658.1218" y1="10" y2="110"/><line style="stroke:#333333;stroke-width:0.5;stroke-dasharray:3.0,5.0;" x1="1708.1218" x2="1708.1218" y1="10" y2="110"/><line style="stroke:#333333;stroke-width:0.5;stroke-dasharray:3.0,5.0;" x1="1758.1218" x2="1758.1218" y1="10" y2="110"/><line style="stroke:#333333;stroke-width:0.5;stroke-dasharray:3.0,5.0;" x1="1808.1218" x2="1808.1218" y1="10" y2="110"/><line style="stroke:#333333;stroke-width:0.5;stroke-dasharray:3.0,5.0;" x1="1858.1218" x2="1858.1218" y1="10" y2="110"/><line style="stroke:#333333;stroke-width:0.5;stroke-dasharray:3.0,5.0;" x1="1908.1218" x2="1908.1218" y1="10" y2="110"/><text fill="#333333" font-family="sans-serif" font-size="14" font-weight="bold" lengthAdjust="spacing" textLength="37.3379" x="15" y="29.606">Latch</text><line style="stroke:#006400;stroke-width:2.0;" x1="58.1218" x2="58.1218" y1="32" y2="32"/><line style="stroke:#006400;stroke-width:2.0;" x1="58.1218" x2="158.1218" y1="32" y2="32"/><line style="stroke:#006400;stroke-width:2.0;" x1="158.1218" x2="158.1218" y1="18" y2="32"/><line style="stroke:#006400;stroke-width:2.0;" x1="158.1218" x2="258.1218" y1="18" y2="18"/><line style="stroke:#006400;stroke-width:2.0;" x1="258.1218" x2="258.1218" y1="18" y2="32"/><line style="stroke:#006400;stroke-width:2.0;" x1="258.1218" x2="1908.1218" y1="32" y2="32"/><text fill="#333333" font-family="sans-serif" font-size="14" font-weight="bold" lengthAdjust="spacing" textLength="38.1218" x="15" y="59.606">Clock</text><line style="stroke:#006400;stroke-width:2.0;" x1="58.1218" x2="58.1218" y1="62" y2="62"/><line style="stroke:#006400;stroke-width:2.0;" x1="58.1218" x2="58.1218" y1="48" y2="62"/><line style="stroke:#006400;stroke-width:2.0;" x1="58.1218" x2="308.1218" y1="48" y2="48"/><line style="stroke:#006400;stroke-width:2.0;" x1="308.1218" x2="308.1218" y1="48" y2="62"/><line style="stroke:#006400;stroke-width:2.0;" x1="308.1218" x2="358.1218" y1="62" y2="62"/><line style="stroke:#006400;stroke-width:2.0;" x1="358.1218" x2="358.1218" y1="48" y2="62"/><line style="stroke:#006400;stroke-width:2.0;" x1="358.1218" x2="408.1218" y1="48" y2="48"/><line style="stroke:#006400;stroke-width:2.0;" x1="408.1218" x2="408.1218" y1="48" y2="62"/><line style="stroke:#006400;stroke-width:2.0;" x1="408.1218" x2="458.1218" y1="62" y2="62"/><line style="stroke:#006400;stroke-width:2.0;" x1="458.1218" x2="458.1218" y1="48" y2="62"/><line style="stroke:#006400;stroke-width:2.0;" x1="458.1218" x2="508.1218" y1="48" y2="48"/><line style="stroke:#006400;stroke-width:2.0;" x1="508.1218" x2="508.1218" y1="48" y2="62"/><line style="stroke:#006400;stroke-width:2.0;" x1="508.1218" x2="558.1218" y1="62" y2="62"/><line style="stroke:#006400;stroke-width:2.0;" x1="558.1218" x2="558.1218" y1="48" y2="62"/><line style="stroke:#006400;stroke-width:2.0;" x1="558.1218" x2="608.1218" y1="48" y2="48"/><line style="stroke:#006400;stroke-width:2.0;" x1="608.1218" x2="608.1218" y1="48" y2="62"/><line style="stroke:#006400;stroke-width:2.0;" x1="608.1218" x2="658.1218" y1="62" y2="62"/><line style="stroke:#006400;stroke-width:2.0;" x1="658.1218" x2="658.1218" y1="48" y2="62"/><line style="stroke:#006400;stroke-width:2.0;" x1="658.1218" x2="708.1218" y1="48" y2="48"/><line style="stroke:#006400;stroke-width:2.0;" x1="708.1218" x2="708.1218" y1="48" y2="62"/><line style="stroke:#006400;stroke-width:2.0;" x1="708.1218" x2="758.1218" y1="62" y2="62"/><line style="stroke:#006400;stroke-width:2.0;" x1="758.1218" x2="758.1218" y1="48" y2="62"/><line style="stroke:#006400;stroke-width:2.0;" x1="758.1218" x2="808.1218" y1="48" y2="48"/><line style="stroke:#006400;stroke-width:2.0;" x1="808.1218" x2="808.1218" y1="48" y2="62"/><line style="stroke:#006400;stroke-width:2.0;" x1="808.1218" x2="858.1218" y1="62" y2="62"/><line style="stroke:#006400;stroke-width:2.0;" x1="858.1218" x2="858.1218" y1="48" y2="62"/><line style="stroke:#006400;stroke-width:2.0;" x1="858.1218" x2="908.1218" y1="48" y2="48"/><line style="stroke:#006400;stroke-width:2.0;" x1="908.1218" x2="908.1218" y1="48" y2="62"/><line style="stroke:#006400;stroke-width:2.0;" x1="908.1218" x2="958.1218" y1="62" y2="62"/><line style="stroke:#006400;stroke-width:2.0;" x1="958.1218" x2="958.1218" y1="48" y2="62"/><line style="stroke:#006400;stroke-width:2.0;" x1="958.1218" x2="1008.1218" y1="48" y2="48"/><line style="stroke:#006400;stroke-width:2.0;" x1="1008.1218" x2="1008.1218" y1="48" y2="62"/><line style="stroke:#006400;stroke-width:2.0;" x1="1008.1218" x2="1058.1218" y1="62" y2="62"/><line style="stroke:#006400;stroke-width:2.0;" x1="1058.1218" x2="1058.1218" y1="48" y2="62"/><line style="stroke:#006400;stroke-width:2.0;" x1="1058.1218" x2="1108.1218" y1="48" y2="48"/><line style="stroke:#006400;stroke-width:2.0;" x1="1108.1218" x2="1108.1218" y1="48" y2="62"/><line style="stroke:#006400;stroke-width:2.0;" x1="1108.1218" x2="1158.1218" y1="62" y2="62"/><line style="stroke:#006400;stroke-width:2.0;" x1="1158.1218" x2="1158.1218" y1="48" y2="62"/><line style="stroke:#006400;stroke-width:2.0;" x1="1158.1218" x2="1208.1218" y1="48" y2="48"/><line style="stroke:#006400;stroke-width:2.0;" x1="1208.1218" x2="1208.1218" y1="48" y2="62"/><line style="stroke:#006400;stroke-width:2.0;" x1="1208.1218" x2="1258.1218" y1="62" y2="62"/><line style="stroke:#006400;stroke-width:2.0;" x1="1258.1218" x2="1258.1218" y1="48" y2="62"/><line style="stroke:#006400;stroke-width:2.0;" x1="1258.1218" x2="1308.1218" y1="48" y2="48"/><line style="stroke:#006400;stroke-width:2.0;" x1="1308.1218" x2="1308.1218" y1="48" y2="62"/><line style="stroke:#006400;stroke-width:2.0;" x1="1308.1218" x2="1358.1218" y1="62" y2="62"/><line style="stroke:#006400;stroke-width:2.0;" x1="1358.1218" x2="1358.1218" y1="48" y2="62"/><line style="stroke:#006400;stroke-width:2.0;" x1="1358.1218" x2="1408.1218" y1="48" y2="48"/><line style="stroke:#006400;stroke-width:2.0;" x1="1408.1218" x2="1408.1218" y1="48" y2="62"/><line style="stroke:#006400;stroke-width:2.0;" x1="1408.1218" x2="1458.1218" y1="62" y2="62"/><line style="stroke:#006400;stroke-width:2.0;" x1="1458.1218" x2="1458.1218" y1="48" y2="62"/><line style="stroke:#006400;stroke-width:2.0;" x1="1458.1218" x2="1508.1218" y1="48" y2="48"/><line style="stroke:#006400;stroke-width:2.0;" x1="1508.1218" x2="1508.1218" y1="48" y2="62"/><line style="stroke:#006400;stroke-width:2.0;" x1="1508.1218" x2="1558.1218" y1="62" y2="62"/><line style="stroke:#006400;stroke-width:2.0;" x1="1558.1218" x2="1558.1218" y1="48" y2="62"/><line style="stroke:#006400;stroke-width:2.0;" x1="1558.1218" x2="1608.1218" y1="48" y2="48"/><line style="stroke:#006400;stroke-width:2.0;" x1="1608.1218" x2="1608.1218" y1="48" y2="62"/><line style="stroke:#006400;stroke-width:2.0;" x1="1608.1218" x2="1658.1218" y1="62" y2="62"/><line style="stroke:#006400;stroke-width:2.0;" x1="1658.1218" x2="1658.1218" y1="48" y2="62"/><line style="stroke:#006400;stroke-width:2.0;" x1="1658.1218" x2="1708.1218" y1="48" y2="48"/><line style="stroke:#006400;stroke-width:2.0;" x1="1708.1218" x2="1708.1218" y1="48" y2="62"/><line style="stroke:#006400;stroke-width:2.0;" x1="1708.1218" x2="1758.1218" y1="62" y2="62"/><line style="stroke:#006400;stroke-width:2.0;" x1="1758.1218" x2="1758.1218" y1="48" y2="62"/><line style="stroke:#006400;stroke-width:2.0;" x1="1758.1218" x2="1808.1218" y1="48" y2="48"/><line style="stroke:#006400;stroke-width:2.0;" x1="1808.1218" x2="1808.1218" y1="48" y2="62"/><line style="stroke:#006400;stroke-width:2.0;" x1="1808.1218" x2="1858.1218" y1="62" y2="62"/><line style="stroke:#006400;stroke-width:2.0;" x1="1858.1218" x2="1858.1218" y1="48" y2="62"/><line style="stroke:#006400;stroke-width:2.0;" x1="1858.1218" x2="1908.1218" y1="48" y2="48"/><text fill="#333333" font-family="sans-serif" font-size="14" font-weight="bold" lengthAdjust="spacing" textLength="30.3379" x="15" y="92.606">Data</text><polygon fill="#E2E2F0" points="270.1218,76,346.1218,76,358.1218,88,346.1218,100,270.1218,100,258.1218,88" style="stroke:#006400;stroke-width:1.5;"/><polygon fill="#E2E2F0" points="370.1218,76,446.1218,76,458.1218,88,446.1218,100,370.1218,100,358.1218,88" style="stroke:#006400;stroke-width:1.5;"/><polygon fill="#E2E2F0" points="470.1218,76,546.1218,76,558.1218,88,546.1218,100,470.1218,100,458.1218,88" style="stroke:#006400;stroke-width:1.5;"/><polygon fill="#E2E2F0" points="570.1218,76,646.1218,76,658.1218,88,646.1218,100,570.1218,100,558.1218,88" style="stroke:#006400;stroke-width:1.5;"/><polygon fill="#E2E2F0" points="670.1218,76,746.1218,76,758.1218,88,746.1218,100,670.1218,100,658.1218,88" style="stroke:#006400;stroke-width:1.5;"/><polygon fill="#E2E2F0" points="770.1218,76,846.1218,76,858.1218,88,846.1218,100,770.1218,100,758.1218,88" style="stroke:#006400;stroke-width:1.5;"/><polygon fill="#E2E2F0" points="870.1218,76,946.1218,76,958.1218,88,946.1218,100,870.1218,100,858.1218,88" style="stroke:#006400;stroke-width:1.5;"/><polygon fill="#E2E2F0" points="970.1218,76,1046.1218,76,1058.1218,88,1046.1218,100,970.1218,100,958.1218,88" style="stroke:#006400;stroke-width:1.5;"/><polygon fill="#E2E2F0" points="1070.1218,76,1146.1218,76,1158.1218,88,1146.1218,100,1070.1218,100,1058.1218,88" style="stroke:#006400;stroke-width:1.5;"/><polygon fill="#E2E2F0" points="1170.1218,76,1246.1218,76,1258.1218,88,1246.1218,100,1170.1218,100,1158.1218,88" style="stroke:#006400;stroke-width:1.5;"/><polygon fill="#E2E2F0" points="1270.1218,76,1346.1218,76,1358.1218,88,1346.1218,100,1270.1218,100,1258.1218,88" style="stroke:#006400;stroke-width:1.5;"/><polygon fill="#E2E2F0" points="1370.1218,76,1446.1218,76,1458.1218,88,1446.1218,100,1370.1218,100,1358.1218,88" style="stroke:#006400;stroke-width:1.5;"/><polygon fill="#E2E2F0" points="1470.1218,76,1546.1218,76,1558.1218,88,1546.1218,100,1470.1218,100,1458.1218,88" style="stroke:#006400;stroke-width:1.5;"/><polygon fill="#E2E2F0" points="1570.1218,76,1646.1218,76,1658.1218,88,1646.1218,100,1570.1218,100,1558.1218,88" style="stroke:#006400;stroke-width:1.5;"/><polygon fill="#E2E2F0" points="1670.1218,76,1746.1218,76,1758.1218,88,1746.1218,100,1670.1218,100,1658.1218,88" style="stroke:#006400;stroke-width:1.5;"/><polygon fill="#E2E2F0" points="1770.1218,76,1846.1218,76,1858.1218,88,1846.1218,100,1770.1218,100,1758.1218,88" style="stroke:#006400;stroke-width:1.5;"/><text fill="#333333" font-family="sans-serif" font-size="12" font-weight="bold" lengthAdjust="spacing" textLength="8.6641" x="303.7898" y="91.948">B</text><text fill="#333333" font-family="sans-serif" font-size="12" font-weight="bold" lengthAdjust="spacing" textLength="8.0041" x="404.1198" y="91.948">Y</text><text fill="#333333" font-family="sans-serif" font-size="12" font-weight="bold" lengthAdjust="spacing" textLength="15.3361" x="500.4538" y="91.948">SL</text><text fill="#333333" font-family="sans-serif" font-size="12" font-weight="bold" lengthAdjust="spacing" textLength="15.3361" x="600.4538" y="91.948">ST</text><text fill="#333333" font-family="sans-serif" font-size="12" font-weight="bold" lengthAdjust="spacing" textLength="6" x="705.1218" y="91.948">&#8593;</text><text fill="#333333" font-family="sans-serif" font-size="12" font-weight="bold" lengthAdjust="spacing" textLength="6" x="805.1218" y="91.948">&#8595;</text><text fill="#333333" font-family="sans-serif" font-size="12" font-weight="bold" lengthAdjust="spacing" textLength="12.0001" x="902.1218" y="91.948">&#8592;</text><text fill="#333333" font-family="sans-serif" font-size="12" font-weight="bold" lengthAdjust="spacing" textLength="12.0001" x="1002.1218" y="91.948">&#8594;</text><text fill="#333333" font-family="sans-serif" font-size="12" font-weight="bold" lengthAdjust="spacing" textLength="8.6641" x="1103.7898" y="91.948">A</text><text fill="#333333" font-family="sans-serif" font-size="12" font-weight="bold" lengthAdjust="spacing" textLength="8.0041" x="1204.1198" y="91.948">X</text><text fill="#333333" font-family="sans-serif" font-size="12" font-weight="bold" lengthAdjust="spacing" textLength="7.332" x="1304.4558" y="91.948">L</text><text fill="#333333" font-family="sans-serif" font-size="12" font-weight="bold" lengthAdjust="spacing" textLength="8.6641" x="1403.7898" y="91.948">R</text><text fill="#333333" font-family="sans-serif" font-size="12" font-weight="bold" lengthAdjust="spacing" textLength="3.336" x="1506.4538" y="91.948">&#160;</text><text fill="#333333" font-family="sans-serif" font-size="12" font-weight="bold" lengthAdjust="spacing" textLength="3.336" x="1606.4538" y="91.948">&#160;</text><text fill="#333333" font-family="sans-serif" font-size="12" font-weight="bold" lengthAdjust="spacing" textLength="3.336" x="1706.4538" y="91.948">&#160;</text><text fill="#333333" font-family="sans-serif" font-size="12" font-weight="bold" lengthAdjust="spacing" textLength="3.336" x="1806.4538" y="91.948">&#160;</text><line style="stroke:#333333;stroke-width:2.0;" x1="58.1218" x2="58.1218" y1="110" y2="115"/><line style="stroke:#333333;stroke-width:2.0;" x1="108.1218" x2="108.1218" y1="110" y2="115"/><line style="stroke:#333333;stroke-width:2.0;" x1="158.1218" x2="158.1218" y1="110" y2="115"/><line style="stroke:#333333;stroke-width:2.0;" x1="208.1218" x2="208.1218" y1="110" y2="115"/><line style="stroke:#333333;stroke-width:2.0;" x1="258.1218" x2="258.1218" y1="110" y2="115"/><line style="stroke:#333333;stroke-width:2.0;" x1="308.1218" x2="308.1218" y1="110" y2="115"/><line style="stroke:#333333;stroke-width:2.0;" x1="358.1218" x2="358.1218" y1="110" y2="115"/><line style="stroke:#333333;stroke-width:2.0;" x1="408.1218" x2="408.1218" y1="110" y2="115"/><line style="stroke:#333333;stroke-width:2.0;" x1="458.1218" x2="458.1218" y1="110" y2="115"/><line style="stroke:#333333;stroke-width:2.0;" x1="508.1218" x2="508.1218" y1="110" y2="115"/><line style="stroke:#333333;stroke-width:2.0;" x1="558.1218" x2="558.1218" y1="110" y2="115"/><line style="stroke:#333333;stroke-width:2.0;" x1="608.1218" x2="608.1218" y1="110" y2="115"/><line style="stroke:#333333;stroke-width:2.0;" x1="658.1218" x2="658.1218" y1="110" y2="115"/><line style="stroke:#333333;stroke-width:2.0;" x1="708.1218" x2="708.1218" y1="110" y2="115"/><line style="stroke:#333333;stroke-width:2.0;" x1="758.1218" x2="758.1218" y1="110" y2="115"/><line style="stroke:#333333;stroke-width:2.0;" x1="808.1218" x2="808.1218" y1="110" y2="115"/><line style="stroke:#333333;stroke-width:2.0;" x1="858.1218" x2="858.1218" y1="110" y2="115"/><line style="stroke:#333333;stroke-width:2.0;" x1="908.1218" x2="908.1218" y1="110" y2="115"/><line style="stroke:#333333;stroke-width:2.0;" x1="958.1218" x2="958.1218" y1="110" y2="115"/><line style="stroke:#333333;stroke-width:2.0;" x1="1008.1218" x2="1008.1218" y1="110" y2="115"/><line style="stroke:#333333;stroke-width:2.0;" x1="1058.1218" x2="1058.1218" y1="110" y2="115"/><line style="stroke:#333333;stroke-width:2.0;" x1="1108.1218" x2="1108.1218" y1="110" y2="115"/><line style="stroke:#333333;stroke-width:2.0;" x1="1158.1218" x2="1158.1218" y1="110" y2="115"/><line style="stroke:#333333;stroke-width:2.0;" x1="1208.1218" x2="1208.1218" y1="110" y2="115"/><line style="stroke:#333333;stroke-width:2.0;" x1="1258.1218" x2="1258.1218" y1="110" y2="115"/><line style="stroke:#333333;stroke-width:2.0;" x1="1308.1218" x2="1308.1218" y1="110" y2="115"/><line style="stroke:#333333;stroke-width:2.0;" x1="1358.1218" x2="1358.1218" y1="110" y2="115"/><line style="stroke:#333333;stroke-width:2.0;" x1="1408.1218" x2="1408.1218" y1="110" y2="115"/><line style="stroke:#333333;stroke-width:2.0;" x1="1458.1218" x2="1458.1218" y1="110" y2="115"/><line style="stroke:#333333;stroke-width:2.0;" x1="1508.1218" x2="1508.1218" y1="110" y2="115"/><line style="stroke:#333333;stroke-width:2.0;" x1="1558.1218" x2="1558.1218" y1="110" y2="115"/><line style="stroke:#333333;stroke-width:2.0;" x1="1608.1218" x2="1608.1218" y1="110" y2="115"/><line style="stroke:#333333;stroke-width:2.0;" x1="1658.1218" x2="1658.1218" y1="110" y2="115"/><line style="stroke:#333333;stroke-width:2.0;" x1="1708.1218" x2="1708.1218" y1="110" y2="115"/><line style="stroke:#333333;stroke-width:2.0;" x1="1758.1218" x2="1758.1218" y1="110" y2="115"/><line style="stroke:#333333;stroke-width:2.0;" x1="1808.1218" x2="1808.1218" y1="110" y2="115"/><line style="stroke:#333333;stroke-width:2.0;" x1="1858.1218" x2="1858.1218" y1="110" y2="115"/><line style="stroke:#333333;stroke-width:2.0;" x1="1908.1218" x2="1908.1218" y1="110" y2="115"/><line style="stroke:#333333;stroke-width:2.0;" x1="58.1218" x2="1908.1218" y1="110" y2="110"/><text fill="#333333" font-family="sans-serif" font-size="11" lengthAdjust="spacing" textLength="6.116" x="55.0639" y="126.2189">0</text><text fill="#333333" font-family="sans-serif" font-size="11" lengthAdjust="spacing" textLength="12.2319" x="152.0059" y="126.2189">12</text><text fill="#333333" font-family="sans-serif" font-size="11" lengthAdjust="spacing" textLength="12.2319" x="252.0059" y="126.2189">24</text><text fill="#333333" font-family="sans-serif" font-size="11" lengthAdjust="spacing" textLength="12.2319" x="302.0059" y="126.2189">30</text><text fill="#333333" font-family="sans-serif" font-size="11" lengthAdjust="spacing" textLength="12.2319" x="352.0059" y="126.2189">36</text><text fill="#333333" font-family="sans-serif" font-size="11" lengthAdjust="spacing" textLength="12.2319" x="402.0059" y="126.2189">42</text><text fill="#333333" font-family="sans-serif" font-size="11" lengthAdjust="spacing" textLength="12.2319" x="452.0059" y="126.2189">48</text><text fill="#333333" font-family="sans-serif" font-size="11" lengthAdjust="spacing" textLength="12.2319" x="502.0059" y="126.2189">54</text><text fill="#333333" font-family="sans-serif" font-size="11" lengthAdjust="spacing" textLength="12.2319" x="552.0059" y="126.2189">60</text><text fill="#333333" font-family="sans-serif" font-size="11" lengthAdjust="spacing" textLength="12.2319" x="602.0059" y="126.2189">66</text><text fill="#333333" font-family="sans-serif" font-size="11" lengthAdjust="spacing" textLength="12.2319" x="652.0059" y="126.2189">72</text><text fill="#333333" font-family="sans-serif" font-size="11" lengthAdjust="spacing" textLength="12.2319" x="702.0059" y="126.2189">78</text><text fill="#333333" font-family="sans-serif" font-size="11" lengthAdjust="spacing" textLength="12.2319" x="752.0059" y="126.2189">84</text><text fill="#333333" font-family="sans-serif" font-size="11" lengthAdjust="spacing" textLength="12.2319" x="802.0059" y="126.2189">90</text><text fill="#333333" font-family="sans-serif" font-size="11" lengthAdjust="spacing" textLength="12.2319" x="852.0059" y="126.2189">96</text><text fill="#333333" font-family="sans-serif" font-size="11" lengthAdjust="spacing" textLength="18.3479" x="898.9479" y="126.2189">102</text><text fill="#333333" font-family="sans-serif" font-size="11" lengthAdjust="spacing" textLength="18.3479" x="948.9479" y="126.2189">108</text><text fill="#333333" font-family="sans-serif" font-size="11" lengthAdjust="spacing" textLength="18.3479" x="998.9479" y="126.2189">114</text><text fill="#333333" font-family="sans-serif" font-size="11" lengthAdjust="spacing" textLength="18.3479" x="1048.9479" y="126.2189">120</text><text fill="#333333" font-family="sans-serif" font-size="11" lengthAdjust="spacing" textLength="18.3479" x="1098.9479" y="126.2189">126</text><text fill="#333333" font-family="sans-serif" font-size="11" lengthAdjust="spacing" textLength="18.3479" x="1148.9479" y="126.2189">132</text><text fill="#333333" font-family="sans-serif" font-size="11" lengthAdjust="spacing" textLength="18.3479" x="1198.9479" y="126.2189">138</text><text fill="#333333" font-family="sans-serif" font-size="11" lengthAdjust="spacing" textLength="18.3479" x="1248.9479" y="126.2189">144</text><text fill="#333333" font-family="sans-serif" font-size="11" lengthAdjust="spacing" textLength="18.3479" x="1298.9479" y="126.2189">150</text><text fill="#333333" font-family="sans-serif" font-size="11" lengthAdjust="spacing" textLength="18.3479" x="1348.9479" y="126.2189">156</text><text fill="#333333" font-family="sans-serif" font-size="11" lengthAdjust="spacing" textLength="18.3479" x="1398.9479" y="126.2189">162</text><text fill="#333333" font-family="sans-serif" font-size="11" lengthAdjust="spacing" textLength="18.3479" x="1448.9479" y="126.2189">168</text><text fill="#333333" font-family="sans-serif" font-size="11" lengthAdjust="spacing" textLength="18.3479" x="1498.9479" y="126.2189">174</text><text fill="#333333" font-family="sans-serif" font-size="11" lengthAdjust="spacing" textLength="18.3479" x="1548.9479" y="126.2189">180</text><text fill="#333333" font-family="sans-serif" font-size="11" lengthAdjust="spacing" textLength="18.3479" x="1598.9479" y="126.2189">186</text><text fill="#333333" font-family="sans-serif" font-size="11" lengthAdjust="spacing" textLength="18.3479" x="1648.9479" y="126.2189">192</text><text fill="#333333" font-family="sans-serif" font-size="11" lengthAdjust="spacing" textLength="18.3479" x="1698.9479" y="126.2189">198</text><text fill="#333333" font-family="sans-serif" font-size="11" lengthAdjust="spacing" textLength="18.3479" x="1748.9479" y="126.2189">204</text><text fill="#333333" font-family="sans-serif" font-size="11" lengthAdjust="spacing" textLength="18.3479" x="1798.9479" y="126.2189">210</text><text fill="#333333" font-family="sans-serif" font-size="11" lengthAdjust="spacing" textLength="18.3479" x="1848.9479" y="126.2189">216</text><!--SRC=[oyrFILL8piyjI4mkuU9AoinBBAfKKF99B4dEK598B5R80R7Wuiuv-SdPOF5a48ihEJylERCuLK799R4a4IoU0cHmSJb0j1aeP1Oh671f6ng168OmXW5G0KI_0LJS6ARI32fWDhBuN0xWS3Co0N6Ld9HW8QKKYM06-o2nGn3iHsqJaJcJaJaJa3cJ41n713C2mKIo80Z1999LdP6PafAQLyi50000]--></g></svg>